Genre:Comedy | Drama
Language: English
IMDB:http://www.imdb.com/title/tt1301990/
Source:BluRay.x264-LEVERAGE

Format : MPEG-4
Format profile : Base Media
Codec ID : isom
File size : 1.82 GiB
Duration : 1h 33mn
Overall bit rate : 2 799 Kbps
Movie name : Every.Day.2010.720p.BRRip.x264.Feel-Free

Video
Format settings, CABAC : Yes
Format settings, ReFrames : 4 frames
Format settings, GOP : M=1, N=2
Codec ID : avc1
Codec ID/Info : Advanced Video Coding
Duration : 1h 33mn
Bit rate mode : Variable
Bit rate : 2 431 Kbps
Width : 1 280 pixels
Height : 720 pixels
Display aspect ratio : 16:9
Frame rate mode : Constant
Frame rate : 23.976 fps
Color space : YUV
Chroma subsampling : 4:2:0
Bit depth : 8 bits
Scan type : Progressive
Bits/(Pixel*Frame) : 0.110
Stream size : 1.57 GiB (86%)
Writing library : x264

Audio
ID : 2
Format : AAC
Format/Info : Advanced Audio Codec
Format version : Version 4
Format profile : LC
Codec ID : 40
Duration : 1h 33mn
Bit rate mode : Variable
Bit rate : 384 Kbps
Channel(s) : 6 channels
Channel positions : Front: L C R, Side: L R, LFE
Sampling rate : 48.0 KHz
Stream size : 256 MiB (14%)


Plot:
A comedy about a New York City couple (Schreiber and Hunt) in romantic crisis.